<svg xmlns="http://www.w3.org/2000/svg" viewBox="0 0 260 40">
        <defs>
          <clipPath id="squareClip">
            <rect x="0" y="0" width="40" height="40" rx="15" />
          </clipPath>
        </defs>
        <g clip-path="url(#squareClip)">
          <rect x="0" y="0" width="40" height="40" fill="#D1FFE8" />
          <g transform="translate(20 20)">
            <g transform="scale(0.08)">
              <g transform="translate(-128 -128)">
                <path d="M240,102c0,70-103.79,126.66-108.21,129a8,8,0,0,1-7.58,0C119.79,228.66,16,172,16,102A62.07,62.07,0,0,1,78,40c20.65,0,38.73,8.88,50,23.89C139.27,48.88,157.35,40,178,40A62.07,62.07,0,0,1,240,102Z" fill="#177F62"></path>
              </g>
            </g>
          </g>
        </g>
        <path fill="#177F62" d="M54.55 29L51.36 29L45.48 12.20L48.26 12.20L52.97 26.43L55.03 20.26L52.20 12.20L54.96 12.20L56.86 18.10L58.73 12.20L61.49 12.20L58.66 20.26L60.70 26.43L65.42 12.20L68.21 12.20L62.33 29L59.11 29L56.86 22.38L54.55 29ZM70.54 29L67.63 29L71.64 23.02L67.61 17.10L70.63 17.10L73.39 21.18L75.98 17.10L78.89 17.10L74.88 23.02L78.91 29L75.91 29L73.13 24.90L70.54 29ZM86.78 29L84.05 29L84.05 12.20L90.05 12.20Q91.80 12.20 93.12 12.76Q94.44 13.33 95.18 14.43Q95.93 15.54 95.93 17.14L95.93 17.14Q95.93 18.75 95.17 19.87Q94.42 20.98 93.10 21.55Q91.78 22.11 90.05 22.11L90.05 22.11L86.78 22.11L86.78 29ZM86.78 14.50L86.78 19.78L89.98 19.78Q91.73 19.78 92.44 19.08Q93.14 18.37 93.14 17.14L93.14 17.14Q93.14 15.94 92.44 15.22Q91.73 14.50 89.98 14.50L89.98 14.50L86.78 14.50ZM99.65 29.29L99.65 29.29Q98.54 29.29 97.60 28.87Q96.65 28.45 96.08 27.63Q95.52 26.82 95.52 25.69L95.52 25.69Q95.52 24.34 96.19 23.50Q96.86 22.66 98.02 22.27Q99.17 21.87 100.56 21.87L100.56 21.87L103.54 21.87Q103.54 20.91 103.22 20.30Q102.91 19.69 102.36 19.39Q101.81 19.09 101.06 19.09L101.06 19.09Q100.10 19.09 99.38 19.52Q98.66 19.95 98.50 20.94L98.50 20.94L95.76 20.94Q95.88 19.64 96.64 18.72Q97.39 17.79 98.57 17.30Q99.74 16.81 101.09 16.81L101.09 16.81Q102.82 16.81 103.96 17.44Q105.10 18.08 105.68 19.21Q106.27 20.34 106.27 21.82L106.27 21.82L106.27 25.45Q106.30 26.10 106.60 26.38Q106.90 26.67 107.54 26.70L107.54 26.70L107.54 29Q106.54 29 105.82 28.78Q105.10 28.57 104.63 28.14Q104.16 27.70 103.87 27.01L103.87 27.01Q103.30 27.97 102.18 28.63Q101.06 29.29 99.65 29.29ZM100.34 27.08L100.34 27.08Q101.28 27.08 101.99 26.64Q102.70 26.19 103.12 25.44Q103.54 24.68 103.54 23.77L103.54 23.77L103.54 23.70L100.75 23.70Q100.13 23.70 99.55 23.86Q98.98 24.03 98.64 24.40Q98.30 24.78 98.30 25.42L98.30 25.42Q98.30 26.29 98.90 26.68Q99.50 27.08 100.34 27.08ZM113.16 34.57L113.16 34.57Q111.60 34.57 110.30 34.21Q109.01 33.85 108.23 33.03Q107.45 32.22 107.45 30.87L107.45 30.87Q107.45 29.98 107.84 29.36Q108.24 28.74 108.98 28.33L108.98 28.33Q108.38 27.97 108.05 27.43Q107.71 26.89 107.71 26.19L107.71 26.19Q107.71 24.66 109.15 23.79L109.15 23.79Q108.62 23.24 108.35 22.54Q108.07 21.85 108.07 21.06L108.07 21.06Q108.07 19.74 108.68 18.79Q109.30 17.84 110.39 17.32Q111.48 16.81 112.90 16.81L112.90 16.81Q113.90 16.81 114.79 17.10L114.79 17.10L118.99 17.10L118.99 19.21L117.26 19.21Q117.46 19.64 117.59 20.10Q117.72 20.55 117.72 21.06L117.72 21.06Q117.72 22.33 117.07 23.29Q116.42 24.25 115.34 24.76Q114.26 25.28 112.90 25.28L112.90 25.28Q112.27 25.28 111.74 25.16Q111.22 25.04 110.71 24.80L110.71 24.80Q110.16 25.09 110.16 25.69L110.16 25.69Q110.16 26.79 112.01 26.79L112.01 26.79L114.12 26.79Q115.54 26.79 116.56 27.16Q117.58 27.54 118.13 28.36Q118.68 29.19 118.68 30.49L118.68 30.49Q118.68 31.78 117.92 32.70Q117.17 33.61 115.91 34.09Q114.65 34.57 113.16 34.57ZM113.14 32.41L113.14 32.41Q114.38 32.41 115.26 31.98Q116.14 31.54 116.14 30.68L116.14 30.68Q116.14 29.05 113.98 29.05L113.98 29.05L112.15 29.05Q111.12 29.05 110.56 29.47Q109.99 29.89 109.99 30.68L109.99 30.68Q109.99 31.33 110.42 31.70Q110.86 32.07 111.58 32.24Q112.30 32.41 113.14 32.41ZM112.85 23.12L112.85 23.12Q113.88 23.12 114.54 22.54Q115.20 21.97 115.20 21.06L115.20 21.06Q115.20 20.14 114.54 19.56Q113.88 18.97 112.85 18.97L112.85 18.97Q111.84 18.97 111.20 19.56Q110.57 20.14 110.57 21.06L110.57 21.06Q110.57 21.97 111.18 22.54Q111.79 23.12 112.85 23.12ZM124.80 29.29L124.80 29.29Q123.00 29.29 121.66 28.48Q120.31 27.68 119.56 26.28Q118.80 24.87 118.80 23.05L118.80 23.05Q118.80 21.15 119.56 19.76Q120.31 18.37 121.67 17.59Q123.02 16.81 124.82 16.81L124.82 16.81Q126.58 16.81 127.87 17.56Q129.17 18.32 129.91 19.64Q130.66 20.96 130.66 22.64L130.66 22.64Q130.66 22.98 130.64 23.24Q130.63 23.50 130.58 23.82L130.58 23.82L121.54 23.82Q121.61 24.75 122.02 25.48Q122.42 26.22 123.13 26.62Q123.84 27.03 124.75 27.03L124.75 27.03Q125.74 27.03 126.42 26.60Q127.10 26.17 127.49 25.35L127.49 25.35L130.34 25.35Q130.01 26.43 129.28 27.32Q128.54 28.21 127.43 28.75Q126.31 29.29 124.80 29.29ZM121.56 21.92L121.56 21.92L127.87 21.92Q127.85 20.60 126.94 19.83Q126.02 19.06 124.75 19.06L124.75 19.06Q123.60 19.06 122.68 19.76Q121.75 20.46 121.56 21.92ZM139.10 29L136.37 29L136.37 12.20L139.10 12.20L139.10 18.97L147.02 18.97L147.02 12.20L149.74 12.20L149.74 29L147.02 29L147.02 21.25L139.10 21.25L139.10 29ZM156.77 29.29L156.77 29.29Q154.97 29.29 153.62 28.48Q152.28 27.68 151.52 26.28Q150.77 24.87 150.77 23.05L150.77 23.05Q150.77 21.15 151.52 19.76Q152.28 18.37 153.64 17.59Q154.99 16.81 156.79 16.81L156.79 16.81Q158.54 16.81 159.84 17.56Q161.14 18.32 161.88 19.64Q162.62 20.96 162.62 22.64L162.62 22.64Q162.62 22.98 162.61 23.24Q162.60 23.50 162.55 23.82L162.55 23.82L153.50 23.82Q153.58 24.75 153.98 25.48Q154.39 26.22 155.10 26.62Q155.81 27.03 156.72 27.03L156.72 27.03Q157.70 27.03 158.39 26.60Q159.07 26.17 159.46 25.35L159.46 25.35L162.31 25.35Q161.98 26.43 161.24 27.32Q160.51 28.21 159.40 28.75Q158.28 29.29 156.77 29.29ZM153.53 21.92L153.53 21.92L159.84 21.92Q159.82 20.60 158.90 19.83Q157.99 19.06 156.72 19.06L156.72 19.06Q155.57 19.06 154.64 19.76Q153.72 20.46 153.53 21.92ZM166.10 29L163.39 29L163.39 12.20L166.10 12.20L166.10 29ZM170.18 34.28L167.47 34.28L167.47 17.10L170.11 17.10L170.18 18.85Q170.83 17.94 171.89 17.37Q172.94 16.81 174.31 16.81L174.31 16.81Q176.06 16.81 177.32 17.64Q178.58 18.46 179.27 19.88Q179.95 21.30 179.95 23.02L179.95 23.02Q179.95 24.75 179.26 26.18Q178.56 27.61 177.30 28.45Q176.04 29.29 174.29 29.29L174.29 29.29Q172.80 29.29 171.76 28.68Q170.71 28.06 170.18 27.25L170.18 27.25L170.18 34.28ZM173.69 26.91L173.69 26.91Q174.72 26.91 175.51 26.40Q176.30 25.88 176.75 24.99Q177.19 24.10 177.19 23.02L177.19 23.02Q177.19 21.85 176.72 20.98Q176.26 20.12 175.46 19.65Q174.67 19.18 173.69 19.18L173.69 19.18Q172.68 19.18 171.89 19.68Q171.10 20.17 170.64 21.04Q170.18 21.92 170.18 23.05L170.18 23.05Q170.18 24.13 170.63 25.00Q171.07 25.88 171.85 26.40Q172.63 26.91 173.69 26.91ZM186.43 29.29L186.43 29.29Q184.63 29.29 183.29 28.48Q181.94 27.68 181.19 26.28Q180.43 24.87 180.43 23.05L180.43 23.05Q180.43 21.15 181.19 19.76Q181.94 18.37 183.30 17.59Q184.66 16.81 186.46 16.81L186.46 16.81Q188.21 16.81 189.50 17.56Q190.80 18.32 191.54 19.64Q192.29 20.96 192.29 22.64L192.29 22.64Q192.29 22.98 192.28 23.24Q192.26 23.50 192.22 23.82L192.22 23.82L183.17 23.82Q183.24 24.75 183.65 25.48Q184.06 26.22 184.76 26.62Q185.47 27.03 186.38 27.03L186.38 27.03Q187.37 27.03 188.05 26.60Q188.74 26.17 189.12 25.35L189.12 25.35L191.98 25.35Q191.64 26.43 190.91 27.32Q190.18 28.21 189.06 28.75Q187.94 29.29 186.43 29.29ZM183.19 21.92L183.19 21.92L189.50 21.92Q189.48 20.60 188.57 19.83Q187.66 19.06 186.38 19.06L186.38 19.06Q185.23 19.06 184.31 19.76Q183.38 20.46 183.19 21.92ZM195.77 29L193.06 29L193.06 17.10L195.70 17.10L195.74 19.04Q196.34 17.98 197.36 17.40Q198.38 16.81 199.73 16.81L199.73 16.81L199.73 19.66L198.98 19.66Q197.35 19.66 196.56 20.48Q195.77 21.30 195.77 23.02L195.77 23.02L195.77 29Z"/>
      </svg>